<svg id="svg" version="1.1" xmlns="http://www.w3.org/2000/svg" xmlns:xlink="http://www.w3.org/1999/xlink" width="400" height="400" viewBox="0, 0, 400,400"><g id="svgg"><path id="path0" d="M78.320 127.803 C 77.461 127.998,76.318 128.170,75.781 128.185 C 75.124 128.203,75.030 128.272,75.493 128.393 C 75.872 128.493,76.079 128.740,75.954 128.942 C 75.829 129.144,75.601 129.232,75.447 129.137 C 74.973 128.843,74.904 130.148,74.879 139.941 C 74.856 148.691,74.977 151.714,75.336 151.357 C 75.413 151.279,76.114 151.558,76.893 151.975 C 78.265 152.711,79.399 152.734,113.534 152.734 L 148.759 152.734 153.188 147.944 C 155.624 145.310,158.936 141.675,160.547 139.866 C 162.158 138.057,164.467 135.471,165.678 134.119 C 166.889 132.767,168.605 130.794,169.491 129.735 L 171.103 127.810 167.290 127.652 C 159.415 127.325,79.831 127.461,78.320 127.803 M251.628 127.734 L 246.419 127.930 243.827 134.443 C 242.401 138.025,241.099 140.872,240.934 140.770 C 240.769 140.668,240.730 140.834,240.846 141.138 C 240.963 141.443,240.170 144.016,239.084 146.856 C 237.998 149.697,237.109 152.181,237.109 152.378 C 237.109 153.041,321.329 152.835,322.618 152.168 C 324.921 150.977,325.137 150.136,325.126 142.390 C 325.112 133.057,324.894 128.957,324.414 129.037 C 324.199 129.072,324.082 128.838,324.154 128.516 C 324.225 128.193,324.158 128.055,324.005 128.209 C 323.851 128.362,323.353 128.283,322.898 128.033 C 322.043 127.563,262.816 127.315,251.628 127.734 M77.295 184.570 C 77.268 184.678,77.220 184.985,77.188 185.254 C 77.156 185.522,76.833 185.719,76.471 185.690 C 76.108 185.662,75.841 185.750,75.877 185.886 C 75.913 186.022,75.642 186.695,75.276 187.383 C 74.355 189.111,74.275 206.033,75.180 207.782 C 75.493 208.389,75.625 209.010,75.473 209.163 C 75.320 209.315,75.371 209.388,75.586 209.325 C 75.801 209.261,76.403 209.445,76.923 209.733 C 77.649 210.134,80.453 210.262,88.948 210.279 L 100.027 210.302 102.749 207.397 C 104.247 205.799,105.660 204.540,105.890 204.600 C 106.120 204.659,106.197 204.527,106.061 204.308 C 105.926 204.088,106.514 203.161,107.369 202.247 C 108.224 201.333,109.263 200.193,109.678 199.713 C 111.969 197.063,115.449 193.568,115.712 193.652 C 115.879 193.706,115.972 193.530,115.918 193.262 C 115.864 192.993,116.034 192.815,116.295 192.866 C 116.555 192.918,116.694 192.742,116.603 192.476 C 116.512 192.210,117.824 190.500,119.518 188.675 C 121.212 186.851,122.567 185.329,122.530 185.293 C 122.492 185.256,120.352 185.174,117.773 185.111 C 115.099 185.045,112.963 184.820,112.799 184.587 C 112.601 184.306,112.510 184.309,112.506 184.595 C 112.502 184.882,107.011 185.041,94.885 185.106 C 82.570 185.173,77.346 185.078,77.525 184.788 C 77.665 184.561,77.682 184.375,77.562 184.375 C 77.442 184.375,77.322 184.463,77.295 184.570 M315.853 184.668 C 315.562 184.959,312.327 185.054,299.219 185.159 L 292.383 185.213 288.732 189.482 C 286.711 191.845,284.897 193.636,284.668 193.494 C 284.431 193.348,284.369 193.424,284.523 193.673 C 284.673 193.916,283.540 195.523,281.946 197.327 C 280.382 199.098,277.217 202.699,274.913 205.329 L 270.724 210.112 275.694 210.232 C 278.428 210.298,289.900 210.352,301.189 210.352 C 327.616 210.352,325.137 211.686,325.103 197.483 C 325.074 185.439,324.911 185.113,318.913 185.113 C 317.182 185.113,316.089 184.963,316.224 184.744 C 316.497 184.303,316.265 184.256,315.853 184.668 M106.831 242.195 C 106.671 242.454,101.644 242.585,92.411 242.568 C 77.343 242.542,76.987 242.582,75.586 244.460 C 74.528 245.879,74.411 267.597,75.464 266.946 C 75.612 266.855,75.914 267.092,76.136 267.472 C 76.358 267.853,76.544 268.026,76.551 267.857 C 76.557 267.689,76.909 267.736,77.333 267.963 C 78.286 268.473,147.251 268.530,147.760 268.021 C 148.262 267.519,157.520 242.937,157.293 242.709 C 157.228 242.645,147.350 242.580,135.342 242.565 C 118.986 242.545,113.363 242.421,112.929 242.070 C 112.474 241.702,112.413 241.706,112.643 242.090 C 112.868 242.463,112.238 242.578,109.961 242.578 C 108.077 242.578,107.074 242.435,107.227 242.188 C 107.359 241.973,107.380 241.797,107.273 241.797 C 107.165 241.797,106.967 241.976,106.831 242.195 M318.750 242.134 C 318.750 242.446,312.709 242.568,297.168 242.569 C 285.298 242.569,268.291 242.579,259.375 242.590 L 243.164 242.610 238.281 248.243 C 235.596 251.342,233.201 253.809,232.959 253.727 C 232.717 253.645,232.541 253.803,232.568 254.080 C 232.643 254.844,225.788 262.550,225.301 262.249 C 225.048 262.093,224.992 262.172,225.163 262.447 C 225.331 262.720,224.499 263.964,223.101 265.528 C 221.811 266.971,220.807 268.203,220.869 268.265 C 221.378 268.773,321.592 268.324,322.589 267.808 C 324.954 266.585,325.030 266.199,325.011 255.364 C 324.990 243.403,325.004 243.750,324.545 243.750 C 324.340 243.750,324.307 243.970,324.471 244.238 C 324.636 244.507,324.193 244.243,323.488 243.652 C 322.361 242.708,321.280 242.347,320.174 242.546 C 319.990 242.579,319.594 242.402,319.295 242.153 C 318.907 241.832,318.750 241.826,318.750 242.134 " stroke="none" fill="#040404" fill-rule="evenodd"></path><path id="path1" d="M270.996 31.027 C 270.620 31.305,270.313 31.697,270.313 31.900 C 270.313 32.511,267.745 34.802,267.422 34.480 C 267.257 34.315,267.158 34.355,267.201 34.570 C 267.409 35.602,267.146 36.018,266.406 35.824 C 265.977 35.712,265.625 35.779,265.625 35.974 C 265.625 36.169,265.828 36.328,266.076 36.328 C 266.334 36.328,266.228 36.659,265.829 37.100 C 265.444 37.525,264.951 37.761,264.731 37.626 C 264.512 37.490,264.440 37.554,264.572 37.767 C 264.704 37.980,264.116 38.834,263.265 39.664 C 262.415 40.495,261.719 41.029,261.719 40.852 C 261.719 40.674,261.466 40.739,261.156 40.996 C 260.847 41.253,260.676 41.678,260.776 41.941 C 260.877 42.203,260.559 42.774,260.070 43.208 C 259.580 43.643,257.966 45.359,256.482 47.022 C 254.495 49.249,253.694 49.911,253.439 49.534 C 253.190 49.168,253.125 49.245,253.206 49.805 C 253.277 50.287,253.122 50.545,252.803 50.479 C 252.511 50.418,252.402 50.559,252.553 50.803 C 252.868 51.313,250.818 53.585,250.321 53.277 C 250.134 53.162,250.028 53.212,250.087 53.389 C 250.277 53.966,247.975 56.642,247.515 56.379 C 247.270 56.239,247.204 56.272,247.367 56.451 C 247.760 56.884,246.093 58.639,245.586 58.326 C 245.369 58.192,245.305 58.265,245.443 58.489 C 245.756 58.995,244.772 59.865,244.335 59.469 C 244.159 59.310,244.123 59.369,244.255 59.601 C 244.642 60.282,242.269 62.891,241.490 62.641 C 240.921 62.459,240.908 62.490,241.406 62.848 C 241.933 63.226,241.703 63.452,240.918 63.328 C 240.757 63.302,240.669 63.413,240.722 63.574 C 240.902 64.114,238.175 67.168,237.737 66.918 C 237.499 66.782,237.433 66.814,237.591 66.988 C 237.748 67.161,237.234 68.025,236.449 68.906 C 234.262 71.360,228.110 78.075,226.440 79.829 C 225.621 80.690,224.419 82.066,223.769 82.887 C 223.119 83.707,222.423 84.277,222.222 84.153 C 222.020 84.028,221.904 84.076,221.963 84.259 C 222.136 84.796,219.640 87.613,219.221 87.354 C 219.010 87.224,218.862 87.424,218.892 87.797 C 218.925 88.214,218.719 88.426,218.359 88.346 C 218.037 88.275,217.901 88.344,218.057 88.500 C 218.480 88.923,213.676 94.185,213.144 93.882 C 212.897 93.740,212.822 93.765,212.978 93.937 C 213.352 94.351,210.975 97.335,210.503 97.043 C 210.302 96.919,210.185 96.979,210.244 97.177 C 210.420 97.767,204.146 104.643,203.593 104.467 C 203.313 104.379,203.192 104.480,203.323 104.692 C 203.638 105.201,199.583 109.795,199.089 109.490 C 198.879 109.360,198.821 109.437,198.959 109.661 C 199.272 110.167,198.288 111.037,197.851 110.641 C 197.675 110.482,197.642 110.546,197.778 110.784 C 197.913 111.022,196.868 112.428,195.454 113.909 C 194.041 115.390,192.984 116.411,193.105 116.178 C 193.226 115.946,193.072 115.755,192.762 115.755 C 192.332 115.755,192.304 115.880,192.642 116.287 C 193.170 116.924,191.576 118.887,190.861 118.480 C 190.624 118.345,190.555 118.373,190.708 118.542 C 190.861 118.712,190.349 119.627,189.571 120.577 C 188.520 121.859,188.067 122.173,187.812 121.797 C 187.545 121.404,187.493 121.422,187.579 121.877 C 187.725 122.647,185.161 125.830,184.649 125.514 C 184.432 125.380,184.361 125.443,184.492 125.654 C 184.786 126.130,178.896 132.667,178.335 132.487 C 178.112 132.415,178.056 132.483,178.210 132.638 C 178.576 133.003,173.504 138.674,172.912 138.562 C 172.664 138.515,172.512 138.718,172.575 139.014 C 172.725 139.722,171.492 141.066,170.981 140.751 C 170.762 140.615,170.693 140.684,170.829 140.903 C 171.059 141.276,169.753 142.773,169.197 142.773 C 169.059 142.773,168.998 142.931,169.062 143.123 C 169.219 143.594,167.148 145.725,166.764 145.488 C 166.597 145.384,166.333 145.506,166.178 145.757 C 165.991 146.059,166.065 146.109,166.397 145.904 C 166.733 145.696,166.833 145.773,166.701 146.137 C 166.593 146.435,166.306 146.636,166.064 146.582 C 165.823 146.528,165.669 146.704,165.723 146.973 C 165.780 147.260,165.500 147.414,165.039 147.347 C 164.547 147.275,164.428 147.350,164.717 147.547 C 165.253 147.914,161.612 152.217,160.914 152.041 C 160.680 151.982,160.593 152.103,160.721 152.310 C 160.849 152.517,160.643 152.868,160.262 153.089 C 159.882 153.311,159.733 153.497,159.931 153.504 C 160.130 153.510,159.885 153.950,159.386 154.480 C 158.888 155.011,158.303 155.335,158.086 155.201 C 157.869 155.067,157.805 155.140,157.943 155.364 C 158.214 155.802,157.454 156.616,156.873 156.510 C 156.679 156.474,156.472 156.772,156.413 157.171 C 156.287 158.034,154.698 159.818,154.284 159.563 C 153.888 159.318,153.066 160.358,153.396 160.688 C 153.773 161.065,150.734 164.079,150.267 163.791 C 150.054 163.659,150.000 163.747,150.148 163.986 C 150.493 164.544,147.706 167.655,147.163 167.319 C 146.938 167.180,146.865 167.246,147.001 167.466 C 147.314 167.972,145.945 169.243,145.511 168.849 C 145.333 168.687,145.304 168.758,145.446 169.007 C 145.892 169.786,140.643 175.634,140.009 175.066 C 139.849 174.922,139.836 175.010,139.979 175.260 C 140.316 175.848,138.341 178.208,137.795 177.870 C 137.566 177.729,137.489 177.791,137.623 178.008 C 137.956 178.547,135.195 181.711,134.672 181.388 C 134.433 181.240,134.367 181.312,134.519 181.557 C 134.837 182.072,132.551 184.781,131.902 184.658 C 131.651 184.610,131.498 184.816,131.562 185.115 C 131.703 185.777,129.706 187.948,129.227 187.652 C 129.040 187.537,128.935 187.675,128.994 187.959 C 129.053 188.244,128.869 188.428,128.584 188.369 C 128.290 188.308,128.183 188.450,128.336 188.697 C 128.670 189.238,125.801 192.246,125.267 191.916 C 125.054 191.784,124.996 191.864,125.138 192.094 C 125.490 192.665,123.480 194.989,122.914 194.665 C 122.665 194.523,122.588 194.546,122.742 194.717 C 123.146 195.164,121.509 197.327,121.004 197.015 C 120.770 196.870,120.694 196.935,120.834 197.161 C 121.147 197.667,120.163 198.537,119.726 198.141 C 119.550 197.982,119.515 198.043,119.648 198.276 C 119.961 198.828,118.811 200.475,118.323 200.173 C 118.118 200.046,117.995 200.087,118.051 200.264 C 118.210 200.769,116.322 203.119,115.944 202.885 C 115.758 202.770,115.654 202.833,115.713 203.025 C 115.897 203.623,113.302 206.309,112.825 206.014 C 112.541 205.839,112.487 205.913,112.676 206.219 C 113.037 206.803,111.387 208.676,110.820 208.326 C 110.593 208.185,110.547 208.278,110.713 208.546 C 110.978 208.975,105.508 215.452,103.809 216.721 C 102.269 217.871,103.353 217.969,117.871 217.996 C 126.466 218.012,132.291 218.164,131.836 218.359 C 131.292 218.593,131.766 218.687,133.398 218.667 C 135.573 218.641,135.629 218.619,134.180 218.359 C 132.738 218.101,132.806 218.075,135.059 218.024 C 136.463 217.992,137.500 218.135,137.500 218.359 C 137.500 218.602,139.238 218.720,142.090 218.672 L 146.680 218.594 142.188 218.359 C 139.717 218.230,146.924 218.092,158.203 218.053 C 169.495 218.013,178.477 218.129,178.190 218.311 C 177.770 218.577,177.789 218.688,178.288 218.879 C 178.679 219.029,178.906 218.905,178.906 218.542 C 178.906 218.227,179.073 217.969,179.277 217.969 C 179.501 217.969,179.486 218.429,179.239 219.140 C 179.008 219.801,178.650 220.200,178.417 220.056 C 178.168 219.902,178.120 219.989,178.298 220.276 C 178.686 220.904,175.778 228.560,175.270 228.246 C 175.047 228.108,175.001 228.201,175.164 228.465 C 175.473 228.965,174.273 232.501,173.876 232.257 C 173.742 232.175,173.611 232.574,173.585 233.144 C 173.512 234.733,170.275 242.601,169.812 242.315 C 169.574 242.168,169.530 242.260,169.703 242.541 C 170.081 243.151,166.366 253.146,165.875 252.843 C 165.671 252.717,165.625 252.809,165.772 253.047 C 165.920 253.286,165.412 255.107,164.645 257.095 C 163.329 260.503,162.450 262.247,163.079 260.205 C 163.285 259.536,163.236 259.357,162.901 259.564 C 162.643 259.723,162.535 260.243,162.658 260.732 C 162.944 261.871,161.785 265.321,161.231 264.979 C 160.979 264.823,160.933 264.911,161.113 265.203 C 161.481 265.798,159.087 272.268,158.237 272.978 C 157.895 273.263,157.859 273.370,158.156 273.217 C 158.453 273.064,158.628 273.106,158.547 273.311 C 158.465 273.515,157.175 276.868,155.681 280.760 C 154.186 284.652,152.836 287.758,152.680 287.662 C 152.525 287.566,152.271 287.693,152.115 287.945 C 151.939 288.230,152.002 288.297,152.283 288.123 C 152.531 287.970,152.734 287.990,152.734 288.167 C 152.734 288.914,150.490 294.259,150.317 293.923 C 150.213 293.720,150.181 293.772,150.245 294.038 C 150.412 294.724,148.746 299.214,148.403 299.002 C 148.247 298.906,148.206 299.158,148.312 299.562 C 148.429 300.010,148.147 300.644,147.592 301.183 C 147.090 301.670,146.899 301.944,147.168 301.792 C 147.820 301.424,147.858 301.280,146.176 305.603 C 145.361 307.696,144.561 309.274,144.397 309.111 C 144.233 308.947,144.226 309.144,144.382 309.549 C 144.593 310.100,144.534 310.204,144.147 309.965 C 143.788 309.743,143.722 309.795,143.931 310.133 C 144.329 310.777,139.852 322.707,139.332 322.386 C 139.109 322.248,139.064 322.342,139.226 322.605 C 139.580 323.178,138.306 326.624,137.845 326.339 C 137.660 326.225,137.605 326.382,137.723 326.688 C 138.030 327.490,133.987 337.939,133.489 337.630 C 133.250 337.483,133.200 337.569,133.367 337.839 C 133.761 338.478,132.479 342.169,131.909 342.035 C 131.654 341.974,131.577 341.999,131.738 342.089 C 132.128 342.306,132.116 343.359,131.724 343.359 C 131.555 343.359,131.392 343.667,131.361 344.043 C 131.232 345.658,128.802 351.245,128.455 350.724 C 128.203 350.347,128.123 350.475,128.175 351.172 C 128.303 352.913,128.146 353.575,127.674 353.283 C 127.391 353.108,127.329 353.176,127.509 353.467 C 127.825 353.978,125.845 359.375,125.341 359.375 C 125.167 359.375,125.109 359.596,125.213 359.867 C 125.317 360.138,125.048 361.054,124.615 361.903 C 123.534 364.023,123.629 364.400,124.929 363.154 C 125.535 362.573,126.179 362.233,126.359 362.397 C 126.540 362.561,126.582 362.509,126.452 362.280 C 126.322 362.052,126.931 361.085,127.805 360.132 C 128.679 359.178,130.359 357.302,131.538 355.961 C 132.717 354.621,133.865 353.637,134.089 353.775 C 134.335 353.928,134.378 353.836,134.196 353.542 C 133.833 352.955,136.266 350.306,136.841 350.661 C 137.057 350.795,137.109 350.706,136.957 350.461 C 136.601 349.884,139.796 346.415,140.377 346.747 C 140.621 346.886,140.695 346.861,140.541 346.691 C 140.128 346.234,140.983 344.855,141.486 345.167 C 141.726 345.315,141.808 345.256,141.671 345.034 C 141.429 344.642,142.810 343.108,143.303 343.223 C 143.441 343.255,143.502 343.098,143.438 342.873 C 143.271 342.287,145.356 340.215,145.823 340.504 C 146.039 340.637,146.094 340.551,145.946 340.311 C 145.621 339.785,148.372 336.632,148.880 336.946 C 149.077 337.068,149.190 337.000,149.131 336.795 C 148.942 336.141,150.791 333.946,151.289 334.231 C 151.547 334.379,151.633 334.361,151.480 334.192 C 151.214 333.897,155.706 328.128,156.205 328.122 C 156.337 328.121,156.856 327.517,157.357 326.780 C 157.859 326.043,158.474 325.488,158.725 325.547 C 158.975 325.605,159.042 325.578,158.874 325.485 C 158.488 325.273,161.390 322.033,161.837 322.178 C 162.019 322.237,162.079 322.142,161.971 321.967 C 161.726 321.571,167.146 315.394,167.622 315.527 C 167.813 315.581,167.925 315.473,167.871 315.288 C 167.702 314.706,171.127 310.912,171.573 311.187 C 171.805 311.331,171.885 311.270,171.751 311.052 C 171.513 310.669,176.315 304.834,179.320 301.855 C 180.133 301.050,180.688 300.391,180.554 300.391 C 180.420 300.391,180.990 299.695,181.820 298.844 C 182.651 297.994,183.504 297.406,183.718 297.537 C 183.937 297.673,183.982 297.579,183.822 297.320 C 183.512 296.817,187.640 292.004,188.407 291.974 C 188.660 291.965,188.822 291.740,188.766 291.475 C 188.710 291.211,188.930 290.892,189.254 290.768 C 189.578 290.643,189.844 290.331,189.844 290.074 C 189.844 289.506,192.352 287.013,192.636 287.298 C 192.748 287.409,192.839 287.256,192.839 286.958 C 192.839 286.022,202.470 275.360,202.834 275.893 C 203.046 276.204,203.118 276.099,203.044 275.586 C 202.973 275.103,203.128 274.846,203.447 274.912 C 203.732 274.971,203.866 274.860,203.745 274.665 C 203.416 274.132,205.069 272.217,205.598 272.520 C 205.849 272.664,205.930 272.643,205.777 272.473 C 205.372 272.025,208.205 268.709,208.735 269.012 C 208.980 269.152,209.052 269.125,208.897 268.953 C 208.499 268.513,211.700 264.786,212.206 265.099 C 212.434 265.240,212.516 265.186,212.388 264.979 C 212.122 264.547,213.773 262.329,214.416 262.256 C 214.651 262.229,215.020 262.185,215.234 262.158 C 215.449 262.131,215.625 261.923,215.625 261.696 C 215.625 261.468,215.417 261.410,215.164 261.567 C 214.910 261.724,215.186 261.218,215.778 260.442 C 216.497 259.499,217.071 259.100,217.509 259.240 C 217.937 259.376,218.005 259.333,217.706 259.114 C 217.126 258.692,220.575 254.562,221.190 254.942 C 221.419 255.084,221.492 255.016,221.353 254.791 C 221.084 254.356,226.723 247.656,227.358 247.656 C 227.565 247.656,227.734 247.478,227.734 247.260 C 227.734 246.647,236.239 237.150,236.528 237.440 C 236.669 237.580,236.725 237.498,236.654 237.258 C 236.551 236.914,240.984 231.483,243.849 228.442 C 244.117 228.158,245.628 226.477,247.208 224.707 C 248.787 222.936,250.265 221.602,250.491 221.742 C 250.740 221.896,250.785 221.807,250.605 221.516 C 250.264 220.963,251.879 219.049,252.410 219.377 C 252.599 219.494,252.705 219.422,252.646 219.217 C 252.458 218.563,254.307 216.368,254.805 216.653 C 255.063 216.801,255.149 216.784,254.997 216.616 C 254.606 216.182,256.641 213.626,257.135 213.931 C 257.368 214.075,257.426 213.995,257.272 213.745 C 257.123 213.504,257.359 213.083,257.797 212.809 C 258.235 212.536,258.594 212.143,258.594 211.936 C 258.594 211.235,261.028 209.044,261.575 209.254 C 261.954 209.399,262.043 209.265,261.868 208.809 C 261.580 208.058,263.453 205.878,264.429 205.829 C 264.857 205.807,264.888 205.737,264.533 205.595 C 264.192 205.458,264.574 204.795,265.705 203.557 C 266.628 202.548,269.639 199.138,272.396 195.979 C 276.785 190.949,278.343 189.325,277.556 190.598 C 277.432 190.798,277.500 191.066,277.708 191.194 C 277.920 191.326,278.014 191.064,277.924 190.593 C 277.775 189.820,280.006 187.045,287.554 178.613 C 288.179 177.915,288.555 177.337,288.388 177.329 C 288.222 177.321,271.431 177.325,251.074 177.338 C 218.185 177.359,214.063 177.295,214.063 176.767 C 214.063 176.439,214.249 176.172,214.476 176.172 C 214.704 176.172,214.764 176.375,214.611 176.623 C 214.450 176.884,214.503 176.968,214.737 176.824 C 214.959 176.686,215.233 176.091,215.346 175.501 C 215.543 174.471,215.528 174.459,214.950 175.203 C 214.266 176.082,214.292 175.993,216.000 171.578 C 216.686 169.803,217.408 168.450,217.604 168.571 C 217.800 168.692,217.864 168.541,217.747 168.237 C 217.631 167.932,220.462 160.321,224.040 151.322 C 231.182 133.359,239.576 112.211,243.361 102.641 C 244.698 99.260,245.932 96.580,246.102 96.685 C 246.272 96.790,246.325 96.480,246.219 95.997 C 246.058 95.264,246.103 95.215,246.487 95.703 C 246.876 96.197,246.910 96.171,246.702 95.536 C 246.380 94.551,251.090 82.716,251.664 83.070 C 251.904 83.219,251.958 83.136,251.793 82.869 C 251.346 82.146,251.946 80.622,252.412 81.296 C 252.685 81.691,252.725 81.617,252.560 81.024 C 252.411 80.489,255.669 71.859,262.123 55.691 C 271.853 31.318,272.306 30.062,270.996 31.027 M228.256 75.612 C 228.127 75.949,228.211 76.414,228.442 76.645 C 228.742 76.945,228.795 76.809,228.628 76.167 C 228.450 75.490,228.519 75.346,228.905 75.585 C 229.245 75.795,229.323 75.750,229.139 75.451 C 228.763 74.842,228.536 74.883,228.256 75.612 M159.082 127.613 C 159.458 127.711,160.073 127.711,160.449 127.613 C 160.825 127.515,160.518 127.434,159.766 127.434 C 159.014 127.434,158.706 127.515,159.082 127.613 M165.332 127.624 C 165.923 127.713,166.890 127.713,167.480 127.624 C 168.071 127.534,167.588 127.461,166.406 127.461 C 165.225 127.461,164.741 127.534,165.332 127.624 M170.634 127.612 C 171.024 127.768,170.950 128.033,170.334 128.688 C 169.717 129.345,169.658 129.557,170.093 129.557 C 170.410 129.557,170.586 129.423,170.484 129.258 C 170.383 129.094,170.653 128.712,171.085 128.410 C 171.922 127.823,171.754 127.324,170.736 127.375 C 170.291 127.397,170.262 127.463,170.634 127.612 M122.070 184.791 C 121.309 185.093,121.309 185.102,122.052 185.129 C 122.695 185.152,122.586 185.391,121.353 186.654 C 120.446 187.582,120.111 188.151,120.470 188.151 C 120.789 188.151,121.016 187.961,120.974 187.728 C 120.933 187.495,121.162 187.363,121.484 187.435 C 121.807 187.507,121.937 187.432,121.774 187.269 C 121.611 187.105,121.849 186.576,122.304 186.092 C 123.290 185.042,123.167 184.354,122.070 184.791 M117.354 191.116 L 116.211 192.380 117.383 191.405 C 118.027 190.869,118.628 190.386,118.717 190.332 C 118.807 190.278,118.794 190.148,118.689 190.043 C 118.584 189.938,117.983 190.421,117.354 191.116 M112.988 218.629 C 113.364 218.727,113.979 218.727,114.355 218.629 C 114.731 218.530,114.424 218.450,113.672 218.450 C 112.920 218.450,112.612 218.530,112.988 218.629 M118.663 218.646 C 119.581 218.728,120.988 218.727,121.788 218.643 C 122.588 218.559,121.836 218.492,120.117 218.493 C 118.398 218.495,117.744 218.563,118.663 218.646 M124.316 218.639 C 124.907 218.729,125.874 218.729,126.465 218.639 C 127.056 218.550,126.572 218.476,125.391 218.476 C 124.209 218.476,123.726 218.550,124.316 218.639 M128.813 218.636 C 129.299 218.729,130.002 218.726,130.376 218.628 C 130.749 218.530,130.352 218.454,129.492 218.458 C 128.633 218.462,128.327 218.542,128.813 218.636 M148.744 218.648 C 149.879 218.727,151.637 218.726,152.650 218.646 C 153.663 218.566,152.734 218.501,150.586 218.502 C 148.438 218.503,147.608 218.569,148.744 218.648 M160.850 218.646 C 161.769 218.728,163.175 218.727,163.975 218.643 C 164.775 218.559,164.023 218.492,162.305 218.493 C 160.586 218.495,159.931 218.563,160.850 218.646 M170.801 218.629 C 171.177 218.727,171.792 218.727,172.168 218.629 C 172.544 218.530,172.236 218.450,171.484 218.450 C 170.732 218.450,170.425 218.530,170.801 218.629 M175.488 218.629 C 175.864 218.727,176.479 218.727,176.855 218.629 C 177.231 218.530,176.924 218.450,176.172 218.450 C 175.420 218.450,175.112 218.530,175.488 218.629 " stroke="none" fill="#1c8bfb" fill-rule="evenodd"></path></g></svg>